<svg width="38" height="26" viewBox="0 0 38 26" fill="none" xmlns="http://www.w3.org/2000/svg">
<path fill-rule="evenodd" clip-rule="evenodd" d="M10.0054 21.2483C11.5297 19.6185 13.7055 18.684 15.8428 18.684H22.1572C24.2946 18.684 26.4703 19.6185 27.9946 21.2483C30.6114 24.0423 32.7662 25.3999 34.5851 25.3999C35.7832 25.3999 36.7584 24.7091 37.3292 23.4553C37.7575 22.5163 38 21.2429 38 19.6731C38 13.1834 33.8239 0.699951 27.4312 0.699951C25.5003 0.699951 24.5991 1.31864 23.8032 1.86413C23.1801 2.29157 22.573 2.69147 21.4137 2.90339C19.7648 2.93869 19.1214 2.93869 18.5509 2.93869H16.8278C15.4449 2.72005 14.8383 2.3047 14.1969 1.86421C13.401 1.31872 12.4998 0.700026 10.5689 0.700026C4.17621 0.700026 0 13.1835 0 19.6732C0 24.8414 2.39615 25.3999 3.41488 25.3999C5.23376 25.3999 7.38855 24.0423 10.0054 21.2483ZM27.9062 14.132C27.2914 14.132 26.793 13.6308 26.793 13.0127C26.793 12.3945 27.2914 11.8933 27.9062 11.8933C28.5211 11.8933 29.0195 12.3945 29.0195 13.0127C29.0195 13.6308 28.5211 14.132 27.9062 14.132ZM30.1328 9.65468C30.7476 9.65468 31.2461 10.1558 31.2461 10.774C31.2461 11.3922 30.7476 11.8933 30.1328 11.8933C29.518 11.8933 29.0195 11.3922 29.0195 10.774C29.0195 10.1558 29.5181 9.65468 30.1328 9.65468ZM27.9062 7.41602C28.5211 7.41602 29.0195 7.91718 29.0195 8.53535C29.0195 9.15352 28.5211 9.65468 27.9062 9.65468C27.2914 9.65468 26.793 9.15352 26.793 8.53535C26.793 7.91718 27.2915 7.41602 27.9062 7.41602ZM25.6797 9.65468C26.2945 9.65468 26.793 10.1558 26.793 10.774C26.793 11.3922 26.2945 11.8933 25.6797 11.8933C25.0649 11.8933 24.5664 11.3922 24.5664 10.774C24.5664 10.1558 25.0649 9.65468 25.6797 9.65468ZM16.7734 9.65468H21.2266C21.8419 9.65468 22.3398 10.1553 22.3398 10.774C22.3398 11.3927 21.8419 11.8933 21.2266 11.8933H16.7734C16.1581 11.8933 15.6602 11.3927 15.6602 10.774C15.6602 10.1553 16.1581 9.65468 16.7734 9.65468ZM7.86719 9.65468H8.98047V8.53535C8.98047 7.91666 9.4784 7.41602 10.0937 7.41602C10.7091 7.41602 11.207 7.91666 11.207 8.53535V9.65468H12.3203C12.9357 9.65468 13.4336 10.1553 13.4336 10.774C13.4336 11.3927 12.9357 11.8933 12.3203 11.8933H11.207V13.0127C11.207 13.6314 10.7091 14.132 10.0937 14.132C9.4784 14.132 8.98047 13.6314 8.98047 13.0127V11.8933H7.86719C7.25184 11.8933 6.75391 11.3927 6.75391 10.774C6.75391 10.1553 7.25184 9.65468 7.86719 9.65468Z" fill="white"/>
</svg>
