<svg width="38" height="38" viewBox="0 0 38 38" fill="none" xmlns="http://www.w3.org/2000/svg">
<path fill-rule="evenodd" clip-rule="evenodd" d="M19 0C8.53241 0 0 8.53241 0 19C0 29.4676 8.53241 38 19 38C29.4676 38 38 29.4676 38 19C38 8.53241 29.5556 0 19 0ZM19 35.0972C17.8565 35.0972 16.8009 35.0093 15.8333 34.7454L14.5139 31.5787L13.1065 27.1806L8.97222 26.7407L7.125 24.8935L4.48611 25.5972C3.51852 23.4861 2.99074 21.1991 2.99074 18.8241C2.99074 17.6806 3.16667 16.537 3.43055 15.3935L6.33333 14.7778L7.30092 12.2269L9.85185 13.5463L12.4907 9.67593L10.3796 5.18982C12.8426 3.60648 15.8333 2.72685 19 2.72685C19.7037 2.72685 20.4954 2.81482 21.1991 2.90278L22.9583 6.33333L19.7037 9.76389L15.6574 13.1944L15.2176 19.5278L20.5833 23.838L21.6389 29.2917L26.6528 29.7315L27.6204 22.6065L32.8981 17.9444L32.1944 13.8981L34.2176 13.1065C34.9213 14.9537 35.3611 16.9769 35.3611 19C35.1852 27.7963 27.8843 35.0972 19 35.0972Z" fill="white"/>
</svg>
