<svg width="36" height="36" viewBox="0 0 36 36" fill="none" xmlns="http://www.w3.org/2000/svg">
<path fill-rule="evenodd" clip-rule="evenodd" d="M23.1979 23.6102C23.3135 23.7212 23.4077 23.836 23.4862 23.9547C23.7857 24.2539 23.9904 24.6704 24.02 25.2057C24.1669 27.9009 24.3402 30.593 24.5255 33.2844C24.6938 35.7142 20.9779 35.6964 20.8115 33.2844C20.6482 30.8864 20.495 28.4891 20.3587 26.0886C19.5443 25.3843 18.5136 24.8864 17.5588 24.4252L17.5588 24.4252L17.5119 24.4025C17.0252 24.1678 16.536 23.94 16.0393 23.7244C15.9727 23.6963 15.7001 23.5815 15.6342 23.5553C15.4565 23.4845 15.2907 23.3959 15.1381 23.2919C13.7931 22.6634 12.8152 23.2033 12.3564 23.4567C12.2763 23.5008 12.2121 23.5363 12.1644 23.5553C12.1215 23.5715 11.9911 23.6264 11.887 23.6701L11.8867 23.6703C11.8098 23.7026 11.7474 23.7289 11.7456 23.7289C11.2551 23.9445 10.7671 24.1652 10.2867 24.4025L10.0656 24.5116C9.26331 24.9067 8.42067 25.3217 7.70434 25.8736C8.63631 28.061 9.55383 30.2549 10.4613 32.4532C10.8538 33.4043 10.0468 34.5277 9.16446 34.7746C8.09371 35.0738 7.27165 34.4046 6.87977 33.4579C5.91453 31.1193 4.93735 28.7857 3.93944 26.4617C3.65182 25.7913 3.74727 25.1482 4.04558 24.6366C4.09707 24.2845 4.26915 23.9279 4.60136 23.6089C6.40625 21.8731 8.89379 20.832 11.1779 19.9166C11.1947 19.9115 11.2128 19.9064 11.2309 19.9014L11.2312 19.9013C11.2557 19.7035 11.3035 19.5102 11.3813 19.3182C12.351 16.9413 13.2792 14.5427 14.1182 12.1135C13.9737 12.0216 13.8337 11.9042 13.6999 11.7524C11.4812 9.22621 9.26369 6.70129 7.04557 4.17509C5.45671 2.36593 8.07424 -0.312091 9.67126 1.50728C11.1789 3.22341 12.6862 4.93984 14.1934 6.65616L16.3244 9.08267C17.5452 8.61571 19.0129 8.92064 19.9134 9.78057C23.191 8.63166 26.4692 7.48339 29.748 6.33576C32.0183 5.5409 32.9848 9.18602 30.7352 9.97386L20.8196 13.4467C20.6356 13.5112 20.4629 13.5437 20.2959 13.5533C19.5096 15.8511 18.6398 18.1208 17.7292 20.3708C19.6836 21.1848 21.6813 22.1525 23.1979 23.6102ZM19.1879 8.43727C20.8801 8.43727 22.2519 7.04377 22.2519 5.32482C22.2519 3.60586 20.8801 2.21237 19.1879 2.21237C17.4956 2.21237 16.1238 3.60586 16.1238 5.32482C16.1238 7.04377 17.4956 8.43727 19.1879 8.43727ZM35.1021 12.9506L34.8496 11.8483L22.2543 15.4175L35.1021 12.9506ZM0.90155 8.47648L1.5126 7.53107L12.1228 15.2927L0.90155 8.47648ZM7.26952 8.86312L11.5701 13.5627L8.14998 8.16842L7.26952 8.86312ZM28.1198 18.196L27.797 19.2786L21.9351 16.8863L28.1198 18.196Z" fill="white"/>
</svg>
