<svg width="32" height="38" viewBox="0 0 32 38" fill="none" xmlns="http://www.w3.org/2000/svg">
<path fill-rule="evenodd" clip-rule="evenodd" d="M6.52345 26.9336H25.4767V32.2107H6.52345V26.9336ZM31.1706 4.11309L29.0139 12.7726C29.8497 14.5401 30.3214 16.5034 30.3251 18.5723L30.3536 34.555C30.3551 35.4637 29.9935 36.3189 29.3354 36.9626C28.6769 37.6064 27.8007 37.9619 26.8683 37.9634L5.17265 38C5.17206 38 5.16719 38 5.16661 38C3.24497 38 1.67856 36.4762 1.67506 34.6035L1.64682 18.6209C1.64312 16.5469 2.10157 14.542 2.97212 12.7153L0.829435 4.11309C0.718036 3.66557 0.929928 3.20078 1.34553 2.98139L4.9292 1.08939C5.21335 0.939263 5.55281 0.926547 5.84805 1.05427C6.1433 1.18219 6.36104 1.43632 6.43738 1.74245L7.78099 7.13699C8.42076 6.7001 9.09363 6.31881 9.79183 5.99181V5.27707C9.79163 2.36723 12.2208 0 15.2068 0H16.7932C19.7792 0 22.2084 2.36723 22.2084 5.27707V6.01553C22.9093 6.3469 23.58 6.73028 24.2122 7.16375L25.5624 1.74245C25.6388 1.43632 25.8563 1.18219 26.1518 1.05427C26.447 0.926357 26.7863 0.939263 27.0706 1.08939L30.6543 2.98139C31.0701 3.20097 31.282 3.66557 31.1706 4.11309ZM11.878 5.20625C13.1862 4.82592 14.5574 4.62531 15.961 4.62304H15.9866C17.4244 4.62304 18.8124 4.8337 20.1229 5.22068C20.0916 3.45622 18.6113 2.02977 16.7934 2.02977H15.207C13.3938 2.02958 11.9172 3.44843 11.878 5.20625ZM27.5594 25.9188C27.5594 25.3583 27.0932 24.904 26.5181 24.904H5.4821C4.90699 24.904 4.44075 25.3583 4.44075 25.9188V33.2256C4.44075 33.7861 4.90699 34.2404 5.4821 34.2404H26.5181C27.0932 34.2404 27.5594 33.7861 27.5594 33.2256V25.9188ZM27.5594 19.0863C27.5594 12.8749 22.3739 7.82161 16 7.82161C9.6261 7.82161 4.44057 12.8749 4.44057 19.0863C4.44057 19.6468 4.90682 20.1011 5.48192 20.1011C6.05703 20.1011 6.52328 19.6468 6.52328 19.0863C6.52328 13.9941 10.7744 9.8514 15.9998 9.8514C21.2253 9.8514 25.4764 13.9941 25.4764 19.0863C25.4764 19.6468 25.9426 20.1011 26.5177 20.1011C27.0928 20.1011 27.5594 19.6468 27.5594 19.0863Z" fill="white"/>
</svg>
