<svg width="38" height="38" viewBox="0 0 38 38" fill="none" xmlns="http://www.w3.org/2000/svg">
<path fill-rule="evenodd" clip-rule="evenodd" d="M23.4705 0.374695C25.2893 -0.414956 27.4517 0.0611353 29.5355 1.63637C31.0836 2.80664 32.5617 4.5583 33.7719 6.63779L33.9972 7.03983L34.1822 7.15129C36.3152 8.53152 37.694 10.7862 37.9549 13.2951L37.9893 13.7404L38 14.1664C38 17.6409 35.8567 20.6904 32.7202 21.9384L32.354 22.0743L32.2214 22.1153L32.8265 27.284L32.8313 27.3976C32.8313 33.2385 25.8522 38 19.0273 38C12.344 38 5.52004 33.4353 5.23268 27.7687L5.22306 27.3844L5.25531 27.0192L5.82971 22.1335L5.69842 22.093C2.58442 21.0424 0.351611 18.2492 0.0379098 14.9637L0.00954388 14.5672L0 14.1664C0 11.2007 1.56669 8.4935 4.07176 6.99175L4.22933 6.89916L4.44779 6.51975C5.42402 4.86679 6.56967 3.42618 7.78155 2.32877L8.23891 1.93359L8.65485 1.6067C10.7259 0.0551948 12.874 -0.409718 14.6804 0.374952C15.5483 0.751672 16.2638 1.3825 16.8036 2.22837L16.9977 2.55558L17.0744 2.70464L17.6317 2.61682C18.3999 2.51524 19.173 2.49806 19.9425 2.56516L20.5188 2.6313L21.0662 2.72474L21.142 2.57559C21.5756 1.781 22.1482 1.14927 22.8442 0.706887L23.1499 0.528966L23.4705 0.374695ZM17.1997 6.36122L16.7437 6.49719L16.4565 6.59315C13.5888 7.67233 11.3355 10.6233 10.4914 14.0894L10.3894 14.5443L10.3036 15.0284L8.83458 27.4475C8.87274 30.3996 12.5005 33.3136 16.7498 34.1602L17.1932 34.2384V28.4016L15.5341 27.0128C13.1053 24.98 14.1855 21.1412 17.255 20.6681L17.5394 20.6345L17.8376 20.6222H20.1464C23.3829 20.6222 24.9166 24.3079 22.8736 26.6156L22.678 26.8215L22.4661 27.0128L20.805 28.4016V34.2494L20.8646 34.2409C25.1246 33.547 28.9278 30.709 29.2089 27.8304L29.2252 27.5424L27.7737 15.2787L27.6881 14.6641C26.9113 10.7734 24.5875 7.74495 21.6593 6.62506L21.4987 6.56672C19.9692 6.01108 18.5221 6.01725 17.1997 6.36122ZM20.1765 24.2198L20.1463 24.225H17.8537L17.8253 24.2198L17.8547 24.2527L19 25.21L20.1765 24.2198ZM10.823 4.48757C9.50853 5.47227 8.1963 7.10723 7.14736 9.08321C6.96645 9.42422 6.68055 9.69811 6.33186 9.86484C4.68012 10.6543 3.61097 12.3454 3.61097 14.1664C3.61097 15.9472 4.63509 17.5659 6.17022 18.3804L6.26639 18.4268L6.74101 14.42C7.36493 9.92137 9.82002 6.15337 13.4584 4.06146L13.6161 3.97249L13.5094 3.85867C13.4667 3.81908 13.4228 3.78419 13.3778 3.75409L13.2396 3.67822C12.6786 3.43457 11.7596 3.78594 10.823 4.48757ZM24.9109 3.67827C24.8142 3.72023 24.7219 3.78261 24.6346 3.8647L24.4972 4.01453L24.68 4.11915C27.8982 6.0409 30.206 9.48763 31.1239 13.4702L31.2357 13.9926L31.308 14.4686L31.546 16.3741L31.7866 18.4122L31.8771 18.3693C33.3042 17.6101 34.2633 16.1627 34.3776 14.5013L34.3891 14.1663C34.3891 12.385 33.4051 10.7675 31.8182 9.94152C31.4762 9.76356 31.2007 9.48109 31.0407 9.15425C29.9933 7.16041 28.6782 5.50817 27.3549 4.50787C26.4079 3.79202 25.4782 3.43207 24.9109 3.67827ZM14.6068 12.591C15.426 12.591 16.1301 13.1388 16.3508 13.9512L16.3958 14.1596L16.4122 14.3923V15.6505C16.4122 16.646 15.6032 17.4519 14.6068 17.4519C13.7875 17.4519 13.0835 16.904 12.8627 16.0916L12.8178 15.8832L12.8013 15.6505V14.3923C12.8013 13.3968 13.6103 12.591 14.6068 12.591ZM22.8163 12.591C23.6356 12.591 24.3396 13.1388 24.5604 13.9512L24.6053 14.1596L24.6217 14.3923V15.6505C24.6217 16.646 23.8128 17.4519 22.8163 17.4519C21.997 17.4519 21.293 16.904 21.0722 16.0916L21.0273 15.8832L21.0109 15.6505V14.3923C21.0109 13.3968 21.8198 12.591 22.8163 12.591Z" fill="white"/>
</svg>
