<svg width="36" height="28" viewBox="0 0 36 28" fill="none" xmlns="http://www.w3.org/2000/svg">
<path fill-rule="evenodd" clip-rule="evenodd" d="M33.0882 0.700012C31.9771 0.700012 31.0764 1.55068 31.0764 2.60004V7.89054C31.0849 11.9054 29.1661 15.7055 25.859 18.2252L19.7135 22.927C18.7121 23.6625 17.2879 23.6625 16.2708 22.9153L10.1425 18.2265C6.83388 15.7055 4.91505 11.9054 4.92355 7.89244L4.92356 2.60003C4.92356 1.55068 4.02285 0.700012 2.91178 0.700012C1.8007 0.700012 0.899994 1.55068 0.899994 2.60003V7.89054L0.909708 8.46816C1.0701 13.079 3.20796 17.4331 6.83152 20.5281L6.93528 20.612L6.93531 25.3208C6.93531 26.3701 7.836 27.2207 8.94706 27.2207L9.18168 27.208C10.1822 27.0982 10.9588 26.2951 10.9588 25.3208L10.9588 23.7394L13.7547 25.8806L14.0835 26.1167C16.5362 27.7695 19.8771 27.6908 22.2449 25.8809L25.0392 23.7413L25.0411 25.3207C25.0411 26.3701 25.9418 27.2207 27.0529 27.2207L27.2875 27.208C28.288 27.0982 29.0647 26.2951 29.0647 25.3207L29.0627 20.612L28.7078 20.9083C32.7665 17.671 35.1057 12.9069 35.1 7.88952V2.60004C35.1 1.55068 34.1993 0.700012 33.0882 0.700012Z" fill="white"/>
</svg>
