<svg width="155" height="28" viewBox="0 0 155 28" fill="none" xmlns="http://www.w3.org/2000/svg">
<mask id="path-1-outside-1_233_879" maskUnits="userSpaceOnUse" x="-0.225952" y="-0.787109" width="155" height="29" fill="black">
<rect fill="white" x="-0.225952" y="-0.787109" width="155" height="29"/>
<path fill-rule="evenodd" clip-rule="evenodd" d="M117.187 8.14291C116.134 8.14291 115.282 7.84796 114.634 7.25806C113.985 6.66817 113.756 5.9696 113.945 5.16238C114.107 4.37585 114.62 3.68763 115.485 3.09774C116.35 2.50784 117.336 2.21289 118.444 2.21289C119.525 2.21289 120.383 2.50266 121.018 3.08221C121.653 3.66176 121.876 4.35515 121.687 5.16238C121.525 5.9903 121.011 6.69404 120.146 7.27359C119.282 7.85313 118.295 8.14291 117.187 8.14291ZM109.891 24.9395L113.458 9.41587H120.187L116.62 24.9395H109.891ZM31.7152 24.9395L36.7008 3.2064H28.9994L19.6361 12.5827L15.0152 3.2064H7.7597L2.77405 24.9395H10.0296L12.7454 13.0484L17.5689 21.9589H18.2985L27.1754 13.2036L24.5002 24.9395H31.7152ZM47.2126 8.98122C50.2661 8.98122 52.6576 9.77292 54.3871 11.3563C55.2604 12.1559 55.8443 13.0439 56.1388 14.0203L57.1974 9.41583H60.2374L60.886 6.62158L67.9794 5.06922L66.9661 9.41583H71.2221L70.0466 14.3523H65.8311L64.8178 18.8542C64.6556 19.5579 64.8718 19.9926 65.4663 20.1582C66.0608 20.3237 67.1417 20.3651 68.709 20.2824L67.6551 24.9394C63.845 25.3327 61.1562 25.0378 59.5889 24.0546C58.0216 23.0714 57.5082 21.3794 58.0486 18.9784L59.1025 14.3523H56.227C56.4263 15.2171 56.4075 16.1486 56.1706 17.1466C56.0625 17.7676 55.8328 18.4092 55.4815 19.0716H41.5784C41.9567 20.3342 43.2538 20.9654 45.4696 20.9654C47.091 20.9654 48.4286 20.5929 49.4825 19.8477L53.7791 22.8593C51.4281 24.5359 48.4826 25.3742 44.9427 25.3742C41.4298 25.3742 38.7883 24.5566 37.0183 22.9214C35.2484 21.2863 34.6201 19.2682 35.1335 16.8672C35.6199 14.5904 36.9981 12.7069 39.268 11.2166C41.5379 9.72635 44.1861 8.98122 47.2126 8.98122ZM42.3891 15.4701H50.05C49.9149 14.042 48.8475 13.3279 46.8478 13.3279C44.8481 13.3279 43.3619 14.042 42.3891 15.4701ZM86.5574 9.41588H93.286L89.719 24.9395H82.9904L83.2741 23.7286C81.7068 24.8257 79.7342 25.3742 77.3562 25.3742C74.4648 25.3742 72.3233 24.5359 70.9316 22.8593C69.5399 21.1828 69.0873 19.2165 69.5737 16.9604C70.0331 14.7664 71.2491 12.888 73.2218 11.3253C75.1944 9.76258 77.6399 8.98122 80.5584 8.98122C83.1525 8.98122 85.0171 9.69531 86.152 11.1235L86.5574 9.41588ZM76.9103 19.6304C77.5318 20.2513 78.4776 20.5618 79.7477 20.5618C81.0177 20.5618 82.1122 20.2617 83.0309 19.6614C83.9497 19.0612 84.5307 18.2643 84.7739 17.2708V17.1776C84.9901 16.1634 84.7874 15.3459 84.1659 14.7249C83.5444 14.104 82.585 13.7935 81.288 13.7935C80.0179 13.7935 78.9235 14.104 78.0047 14.7249C77.086 15.3459 76.5185 16.1634 76.3023 17.1776C76.0861 18.1919 76.2888 19.0094 76.9103 19.6304ZM100.677 19.5683H110.445L109.229 24.9395H92.2051L97.1907 3.2064H104.446L100.677 19.5683ZM134.266 7.52195C131.996 7.39776 130.685 8.02906 130.334 9.41583H133.82L132.992 13.0156C133.585 12.363 134.298 11.7634 135.13 11.2166C137.4 9.72635 140.048 8.98122 143.075 8.98122C146.129 8.98122 148.52 9.77292 150.249 11.3563C151.979 12.9397 152.573 14.8698 152.033 17.1466C151.925 17.7676 151.695 18.4092 151.344 19.0716H137.441C137.819 20.3342 139.116 20.9654 141.332 20.9654C142.953 20.9654 144.291 20.5929 145.345 19.8477L149.641 22.8593C147.29 24.5359 144.345 25.3742 140.805 25.3742C137.292 25.3742 134.651 24.5566 132.881 22.9214C131.111 21.2863 130.482 19.2682 130.996 16.8672C131.188 15.9675 131.52 15.1292 131.99 14.3523H129.199L126.767 24.9394H120.038L122.47 14.3523H119.957L121.052 9.41583H123.605C124.146 7.11834 125.402 5.39522 127.375 4.24647C129.348 3.09773 132.009 2.5958 135.36 2.74068L134.266 7.52195ZM138.251 15.4701H145.912C145.777 14.042 144.71 13.3279 142.71 13.3279C140.71 13.3279 139.224 14.042 138.251 15.4701Z"/>
</mask>
<path fill-rule="evenodd" clip-rule="evenodd" d="M117.187 8.14291C116.134 8.14291 115.282 7.84796 114.634 7.25806C113.985 6.66817 113.756 5.9696 113.945 5.16238C114.107 4.37585 114.62 3.68763 115.485 3.09774C116.35 2.50784 117.336 2.21289 118.444 2.21289C119.525 2.21289 120.383 2.50266 121.018 3.08221C121.653 3.66176 121.876 4.35515 121.687 5.16238C121.525 5.9903 121.011 6.69404 120.146 7.27359C119.282 7.85313 118.295 8.14291 117.187 8.14291ZM109.891 24.9395L113.458 9.41587H120.187L116.62 24.9395H109.891ZM31.7152 24.9395L36.7008 3.2064H28.9994L19.6361 12.5827L15.0152 3.2064H7.7597L2.77405 24.9395H10.0296L12.7454 13.0484L17.5689 21.9589H18.2985L27.1754 13.2036L24.5002 24.9395H31.7152ZM47.2126 8.98122C50.2661 8.98122 52.6576 9.77292 54.3871 11.3563C55.2604 12.1559 55.8443 13.0439 56.1388 14.0203L57.1974 9.41583H60.2374L60.886 6.62158L67.9794 5.06922L66.9661 9.41583H71.2221L70.0466 14.3523H65.8311L64.8178 18.8542C64.6556 19.5579 64.8718 19.9926 65.4663 20.1582C66.0608 20.3237 67.1417 20.3651 68.709 20.2824L67.6551 24.9394C63.845 25.3327 61.1562 25.0378 59.5889 24.0546C58.0216 23.0714 57.5082 21.3794 58.0486 18.9784L59.1025 14.3523H56.227C56.4263 15.2171 56.4075 16.1486 56.1706 17.1466C56.0625 17.7676 55.8328 18.4092 55.4815 19.0716H41.5784C41.9567 20.3342 43.2538 20.9654 45.4696 20.9654C47.091 20.9654 48.4286 20.5929 49.4825 19.8477L53.7791 22.8593C51.4281 24.5359 48.4826 25.3742 44.9427 25.3742C41.4298 25.3742 38.7883 24.5566 37.0183 22.9214C35.2484 21.2863 34.6201 19.2682 35.1335 16.8672C35.6199 14.5904 36.9981 12.7069 39.268 11.2166C41.5379 9.72635 44.1861 8.98122 47.2126 8.98122ZM42.3891 15.4701H50.05C49.9149 14.042 48.8475 13.3279 46.8478 13.3279C44.8481 13.3279 43.3619 14.042 42.3891 15.4701ZM86.5574 9.41588H93.286L89.719 24.9395H82.9904L83.2741 23.7286C81.7068 24.8257 79.7342 25.3742 77.3562 25.3742C74.4648 25.3742 72.3233 24.5359 70.9316 22.8593C69.5399 21.1828 69.0873 19.2165 69.5737 16.9604C70.0331 14.7664 71.2491 12.888 73.2218 11.3253C75.1944 9.76258 77.6399 8.98122 80.5584 8.98122C83.1525 8.98122 85.0171 9.69531 86.152 11.1235L86.5574 9.41588ZM76.9103 19.6304C77.5318 20.2513 78.4776 20.5618 79.7477 20.5618C81.0177 20.5618 82.1122 20.2617 83.0309 19.6614C83.9497 19.0612 84.5307 18.2643 84.7739 17.2708V17.1776C84.9901 16.1634 84.7874 15.3459 84.1659 14.7249C83.5444 14.104 82.585 13.7935 81.288 13.7935C80.0179 13.7935 78.9235 14.104 78.0047 14.7249C77.086 15.3459 76.5185 16.1634 76.3023 17.1776C76.0861 18.1919 76.2888 19.0094 76.9103 19.6304ZM100.677 19.5683H110.445L109.229 24.9395H92.2051L97.1907 3.2064H104.446L100.677 19.5683ZM134.266 7.52195C131.996 7.39776 130.685 8.02906 130.334 9.41583H133.82L132.992 13.0156C133.585 12.363 134.298 11.7634 135.13 11.2166C137.4 9.72635 140.048 8.98122 143.075 8.98122C146.129 8.98122 148.52 9.77292 150.249 11.3563C151.979 12.9397 152.573 14.8698 152.033 17.1466C151.925 17.7676 151.695 18.4092 151.344 19.0716H137.441C137.819 20.3342 139.116 20.9654 141.332 20.9654C142.953 20.9654 144.291 20.5929 145.345 19.8477L149.641 22.8593C147.29 24.5359 144.345 25.3742 140.805 25.3742C137.292 25.3742 134.651 24.5566 132.881 22.9214C131.111 21.2863 130.482 19.2682 130.996 16.8672C131.188 15.9675 131.52 15.1292 131.99 14.3523H129.199L126.767 24.9394H120.038L122.47 14.3523H119.957L121.052 9.41583H123.605C124.146 7.11834 125.402 5.39522 127.375 4.24647C129.348 3.09773 132.009 2.5958 135.36 2.74068L134.266 7.52195ZM138.251 15.4701H145.912C145.777 14.042 144.71 13.3279 142.71 13.3279C140.71 13.3279 139.224 14.042 138.251 15.4701Z" fill="white" fill-opacity="0.2"/>
<path d="M114.634 7.25806L115.988 5.76906L115.988 5.76905L114.634 7.25806ZM113.945 5.16238L115.904 5.6216L115.911 5.59526L115.916 5.56877L113.945 5.16238ZM115.485 3.09774L114.351 1.43497L114.351 1.43497L115.485 3.09774ZM121.018 3.08221L119.661 4.56895L119.661 4.56896L121.018 3.08221ZM121.687 5.16238L119.727 4.70314L119.718 4.7392L119.711 4.77555L121.687 5.16238ZM120.146 7.27359L119.026 5.60156L119.026 5.60156L120.146 7.27359ZM113.458 9.41587V7.40305H111.856L111.497 8.96512L113.458 9.41587ZM109.891 24.9395L107.93 24.4887L107.364 26.9523H109.891V24.9395ZM120.187 9.41587L122.149 9.86663L122.715 7.40305H120.187V9.41587ZM116.62 24.9395V26.9523H118.223L118.582 25.3902L116.62 24.9395ZM36.7008 3.2064L38.6627 3.65646L39.2277 1.19358L36.7008 1.19358V3.2064ZM31.7152 24.9395V26.9523H33.3185L33.677 25.3895L31.7152 24.9395ZM28.9994 3.2064V1.19358H28.1649L27.5751 1.78411L28.9994 3.2064ZM19.6361 12.5827L17.8306 13.4724L19.0736 15.9945L21.0604 14.005L19.6361 12.5827ZM15.0152 3.2064L16.8207 2.31662L16.2673 1.19358H15.0152V3.2064ZM7.7597 3.2064V1.19358H6.15635L5.79784 2.75634L7.7597 3.2064ZM2.77405 24.9395L0.812188 24.4894L0.247193 26.9523H2.77405V24.9395ZM10.0296 24.9395V26.9523H11.6345L11.9919 25.3876L10.0296 24.9395ZM12.7454 13.0484L14.5155 12.0902L11.9725 7.39242L10.7831 12.6002L12.7454 13.0484ZM17.5689 21.9589L15.7988 22.9171L16.3697 23.9717H17.5689V21.9589ZM18.2985 21.9589V23.9717H19.1241L19.7119 23.392L18.2985 21.9589ZM27.1754 13.2036L29.1379 13.651L30.67 6.92973L25.762 11.7705L27.1754 13.2036ZM24.5002 24.9395L22.5377 24.4921L21.9769 26.9523H24.5002V24.9395ZM54.3871 11.3563L55.7463 9.87176L55.7463 9.87175L54.3871 11.3563ZM56.1388 14.0203L54.2117 14.6015L56.4014 21.8613L58.1005 14.4713L56.1388 14.0203ZM57.1974 9.41583V7.40301H55.5948L55.2358 8.96483L57.1974 9.41583ZM60.2374 9.41583V11.4286H61.8366L62.1981 9.8709L60.2374 9.41583ZM60.886 6.62158L60.4557 4.65529L59.2129 4.92727L58.9253 6.1665L60.886 6.62158ZM67.9794 5.06922L69.9397 5.52622L70.6635 2.42136L67.5491 3.10293L67.9794 5.06922ZM66.9661 9.41583L65.0058 8.95883L64.43 11.4286H66.9661V9.41583ZM71.2221 9.41583L73.1802 9.88209L73.7705 7.40301H71.2221V9.41583ZM70.0466 14.3523V16.3652H71.6364L72.0047 14.8186L70.0466 14.3523ZM65.8311 14.3523V12.3395H64.221L63.8674 13.9103L65.8311 14.3523ZM64.8178 18.8542L66.7792 19.3061L66.7815 19.2962L64.8178 18.8542ZM65.4663 20.1582L64.9262 22.0972L64.9262 22.0972L65.4663 20.1582ZM68.709 20.2824L70.6722 20.7266L71.2593 18.132L68.6028 18.2723L68.709 20.2824ZM67.6551 24.9394L67.8618 26.9416L69.2993 26.7932L69.6183 25.3837L67.6551 24.9394ZM58.0486 18.9784L56.0861 18.5313L56.0849 18.5364L58.0486 18.9784ZM59.1025 14.3523L61.065 14.7994L61.6254 12.3395H59.1025V14.3523ZM56.227 14.3523V12.3395H53.6977L54.2656 14.8043L56.227 14.3523ZM56.1706 17.1466L54.2122 16.6818L54.198 16.7412L54.1876 16.8015L56.1706 17.1466ZM55.4815 19.0716V21.0844H56.6923L57.2597 20.0147L55.4815 19.0716ZM41.5784 19.0716V17.0587H38.874L39.6503 19.6493L41.5784 19.0716ZM49.4825 19.8477L50.6378 18.1995L49.4774 17.3862L48.3204 18.2042L49.4825 19.8477ZM53.7791 22.8593L54.9477 24.4981L57.2656 22.8451L54.9344 21.2111L53.7791 22.8593ZM37.0183 22.9214L38.3842 21.4429L38.3842 21.4429L37.0183 22.9214ZM35.1335 16.8672L37.1018 17.2881L37.1019 17.2877L35.1335 16.8672ZM39.268 11.2166L38.1633 9.53403L38.1633 9.53403L39.268 11.2166ZM50.05 15.4701V17.483H52.2622L52.0538 15.2806L50.05 15.4701ZM42.3891 15.4701L40.7255 14.337L38.5826 17.483H42.3891V15.4701ZM93.286 9.41588L95.2477 9.86664L95.8137 7.40306H93.286V9.41588ZM86.5574 9.41588V7.40306H84.9664L84.599 8.95101L86.5574 9.41588ZM89.719 24.9395V26.9523H91.3218L91.6807 25.3902L89.719 24.9395ZM82.9904 24.9395L81.0307 24.4803L80.4514 26.9523H82.9904V24.9395ZM83.2741 23.7286L85.2339 24.1879L86.4358 19.0589L82.1199 22.0796L83.2741 23.7286ZM70.9316 22.8593L69.3828 24.1449L69.3828 24.1449L70.9316 22.8593ZM69.5737 16.9604L71.5414 17.3846L71.5438 17.3729L69.5737 16.9604ZM73.2218 11.3253L74.4716 12.903L74.4716 12.903L73.2218 11.3253ZM86.152 11.1235L84.5762 12.3758L87.1536 15.6191L88.1104 11.5883L86.152 11.1235ZM76.9103 19.6304L75.4877 21.0543L75.4877 21.0543L76.9103 19.6304ZM83.0309 19.6614L84.1318 21.3465L84.1318 21.3465L83.0309 19.6614ZM84.7739 17.2708L86.729 17.7494L86.7867 17.5136V17.2708H84.7739ZM84.7739 17.1776L82.8053 16.758L82.7611 16.9655V17.1776H84.7739ZM84.1659 14.7249L82.7432 16.1488L82.7432 16.1489L84.1659 14.7249ZM78.0047 14.7249L76.8776 13.0572L76.8776 13.0573L78.0047 14.7249ZM76.3023 17.1776L78.2709 17.5973L78.2709 17.5973L76.3023 17.1776ZM110.445 19.5683L112.408 20.0127L112.965 17.5555H110.445V19.5683ZM100.677 19.5683L98.7152 19.1164L98.1474 21.5811H100.677V19.5683ZM109.229 24.9395V26.9523H110.837L111.192 25.3839L109.229 24.9395ZM92.2051 24.9395L90.2432 24.4894L89.6782 26.9523H92.2051V24.9395ZM97.1907 3.2064V1.19358H95.5874L95.2289 2.75634L97.1907 3.2064ZM104.446 3.2064L106.408 3.6583L106.976 1.19358H104.446V3.2064ZM130.334 9.41583L128.383 8.92156L127.748 11.4287H130.334V9.41583ZM134.266 7.52195L134.156 9.53177L135.849 9.62443L136.228 7.97107L134.266 7.52195ZM133.82 9.41583L135.781 9.86682L136.348 7.40301H133.82V9.41583ZM132.992 13.0156L131.031 12.5646L129.305 20.0688L134.482 14.3689L132.992 13.0156ZM135.13 11.2166L136.235 12.8992L136.235 12.8992L135.13 11.2166ZM150.249 11.3563L151.609 9.87175L151.609 9.87175L150.249 11.3563ZM152.033 17.1466L150.075 16.6818L150.06 16.7412L150.05 16.8014L152.033 17.1466ZM151.344 19.0716V21.0844H152.555L153.122 20.0147L151.344 19.0716ZM137.441 19.0716V17.0587H134.736L135.513 19.6493L137.441 19.0716ZM145.345 19.8477L146.5 18.1995L145.34 17.3862L144.183 18.2042L145.345 19.8477ZM149.641 22.8593L150.81 24.4981L153.128 22.8451L150.797 21.2111L149.641 22.8593ZM132.881 22.9214L131.515 24.3999L131.515 24.3999L132.881 22.9214ZM130.996 16.8672L132.964 17.2881L132.964 17.2877L130.996 16.8672ZM131.99 14.3523L133.712 15.3954L135.563 12.3395H131.99V14.3523ZM129.199 14.3523V12.3395H127.596L127.237 13.9017L129.199 14.3523ZM126.767 24.9394V26.9523H128.37L128.729 25.3901L126.767 24.9394ZM120.038 24.9394L118.077 24.4888L117.511 26.9523H120.038V24.9394ZM122.47 14.3523L124.432 14.803L124.998 12.3395H122.47V14.3523ZM119.957 14.3523L117.992 13.9167L117.449 16.3652H119.957V14.3523ZM121.052 9.41583V7.40301H119.436L119.087 8.98017L121.052 9.41583ZM123.605 9.41583V11.4287H125.2L125.565 9.87674L123.605 9.41583ZM127.375 4.24647L126.362 2.50709L126.362 2.50709L127.375 4.24647ZM135.36 2.74068L137.322 3.1898L137.861 0.834135L135.447 0.729741L135.36 2.74068ZM145.912 15.4701V17.483H148.125L147.916 15.2806L145.912 15.4701ZM138.251 15.4701L136.588 14.337L134.445 17.483H138.251V15.4701ZM113.279 8.74706C114.371 9.73955 115.739 10.1557 117.187 10.1557V6.13009C116.528 6.13009 116.194 5.95637 115.988 5.76906L113.279 8.74706ZM111.985 4.70316C111.817 5.41984 111.818 6.17653 112.063 6.92043C112.306 7.65801 112.748 8.26331 113.279 8.74707L115.988 5.76905C115.928 5.71462 115.9 5.67758 115.889 5.6616C115.879 5.64698 115.882 5.64802 115.887 5.663C115.889 5.66964 115.891 5.67659 115.892 5.68306C115.893 5.68614 115.893 5.68867 115.893 5.69054C115.893 5.6924 115.893 5.69334 115.893 5.69326C115.893 5.69323 115.893 5.68794 115.895 5.67662C115.896 5.6652 115.898 5.64704 115.904 5.6216L111.985 4.70316ZM114.351 1.43497C113.19 2.22666 112.27 3.31696 111.973 4.75599L115.916 5.56877C115.944 5.43473 116.05 5.1486 116.619 4.7605L114.351 1.43497ZM118.444 0.20007C116.956 0.20007 115.57 0.603344 114.351 1.43497L116.619 4.7605C117.13 4.41233 117.716 4.22571 118.444 4.22571V0.20007ZM122.375 1.59547C121.28 0.596699 119.893 0.20007 118.444 0.20007V4.22571C119.157 4.22571 119.485 4.40863 119.661 4.56895L122.375 1.59547ZM123.646 5.62161C123.813 4.91248 123.816 4.1614 123.578 3.42082C123.341 2.68435 122.904 2.07885 122.375 1.59547L119.661 4.56896C119.716 4.61878 119.74 4.65139 119.748 4.6632C119.755 4.67364 119.75 4.66955 119.745 4.65301C119.743 4.64565 119.741 4.63842 119.74 4.63212C119.739 4.62587 119.739 4.62273 119.739 4.62359C119.739 4.62478 119.739 4.64956 119.727 4.70314L123.646 5.62161ZM121.267 8.94561C122.466 8.14218 123.374 7.01942 123.662 5.5492L119.711 4.77555C119.675 4.96118 119.556 5.2459 119.026 5.60156L121.267 8.94561ZM117.187 10.1557C118.667 10.1557 120.049 9.7619 121.267 8.94561L119.026 5.60156C118.514 5.94437 117.923 6.13009 117.187 6.13009V10.1557ZM111.497 8.96512L107.93 24.4887L111.853 25.3902L115.42 9.86663L111.497 8.96512ZM120.187 7.40305H113.458V11.4287H120.187V7.40305ZM118.582 25.3902L122.149 9.86663L118.225 8.96512L114.658 24.4887L118.582 25.3902ZM109.891 26.9523H116.62V22.9267H109.891V26.9523ZM34.739 2.75634L29.7533 24.4894L33.677 25.3895L38.6627 3.65646L34.739 2.75634ZM28.9994 5.21922H36.7008V1.19358H28.9994V5.21922ZM21.0604 14.005L30.4237 4.6287L27.5751 1.78411L18.2118 11.1604L21.0604 14.005ZM13.2098 4.09618L17.8306 13.4724L21.4416 11.6929L16.8207 2.31662L13.2098 4.09618ZM7.7597 5.21922H15.0152V1.19358H7.7597V5.21922ZM4.73591 25.3895L9.72156 3.65646L5.79784 2.75634L0.812188 24.4894L4.73591 25.3895ZM10.0296 22.9266H2.77405V26.9523H10.0296V22.9266ZM10.7831 12.6002L8.0673 24.4913L11.9919 25.3876L14.7077 13.4965L10.7831 12.6002ZM19.339 21.0007L14.5155 12.0902L10.9752 14.0066L15.7988 22.9171L19.339 21.0007ZM18.2985 19.9461H17.5689V23.9717H18.2985V19.9461ZM25.762 11.7705L16.8851 20.5259L19.7119 23.392L28.5888 14.6367L25.762 11.7705ZM26.4626 25.3868L29.1379 13.651L25.2129 12.7563L22.5377 24.4921L26.4626 25.3868ZM31.7152 22.9266H24.5002V26.9523H31.7152V22.9266ZM55.7463 9.87175C53.5446 7.85599 50.613 6.9684 47.2126 6.9684V10.994C49.9193 10.994 51.7706 11.6899 53.0278 12.8409L55.7463 9.87175ZM58.0659 13.439C57.651 12.0634 56.8431 10.876 55.7463 9.87176L53.0278 12.8409C53.6777 13.4359 54.0377 14.0244 54.2117 14.6015L58.0659 13.439ZM55.2358 8.96483L54.1772 13.5693L58.1005 14.4713L59.1591 9.86683L55.2358 8.96483ZM60.2374 7.40301H57.1974V11.4286H60.2374V7.40301ZM58.9253 6.1665L58.2767 8.96075L62.1981 9.8709L62.8467 7.07665L58.9253 6.1665ZM67.5491 3.10293L60.4557 4.65529L61.3163 8.58786L68.4097 7.0355L67.5491 3.10293ZM68.9263 9.87283L69.9397 5.52622L66.0191 4.61222L65.0058 8.95883L68.9263 9.87283ZM71.2221 7.40301H66.9661V11.4286H71.2221V7.40301ZM72.0047 14.8186L73.1802 9.88209L69.264 8.94957L68.0886 13.8861L72.0047 14.8186ZM65.8311 16.3652H70.0466V12.3395H65.8311V16.3652ZM66.7815 19.2962L67.7948 14.7944L63.8674 13.9103L62.8541 18.4122L66.7815 19.2962ZM66.0064 18.2192C66.0994 18.2451 66.4493 18.387 66.6605 18.8116C66.8403 19.173 66.7536 19.4173 66.7792 19.3061L62.8563 18.4023C62.7198 18.9948 62.6602 19.8083 63.0561 20.6043C63.4835 21.4636 64.2387 21.9057 64.9262 22.0972L66.0064 18.2192ZM68.6028 18.2723C67.0183 18.356 66.245 18.2856 66.0064 18.2192L64.9262 22.0972C65.8766 22.3619 67.2651 22.3743 68.8152 22.2924L68.6028 18.2723ZM69.6183 25.3837L70.6722 20.7266L66.7458 19.8381L65.6919 24.4952L69.6183 25.3837ZM58.5193 25.7597C60.7037 27.13 63.9998 27.3402 67.8618 26.9416L67.4485 22.9373C63.6901 23.3252 61.6087 22.9455 60.6585 22.3495L58.5193 25.7597ZM56.0849 18.5364C55.7667 19.95 55.7125 21.3481 56.1023 22.6326C56.5069 23.9662 57.3451 25.0231 58.5193 25.7597L60.6585 22.3495C60.2654 22.1029 60.0632 21.8222 59.9545 21.4637C59.8308 21.0561 59.7901 20.4078 60.0123 19.4204L56.0849 18.5364ZM57.14 13.9052L56.0861 18.5313L60.0112 19.4255L61.065 14.7994L57.14 13.9052ZM56.227 16.3652H59.1025V12.3395H56.227V16.3652ZM58.129 17.6115C58.4262 16.3591 58.4673 15.1107 58.1884 13.9004L54.2656 14.8043C54.3852 15.3236 54.3887 15.938 54.2122 16.6818L58.129 17.6115ZM57.2597 20.0147C57.692 19.1995 58.003 18.3569 58.1536 17.4918L54.1876 16.8015C54.122 17.1783 53.9735 17.6189 53.7033 18.1284L57.2597 20.0147ZM41.5784 21.0844H55.4815V17.0587H41.5784V21.0844ZM45.4696 18.9526C44.5188 18.9526 43.9822 18.8118 43.7158 18.6821C43.5199 18.5868 43.5179 18.5318 43.5065 18.4938L39.6503 19.6493C40.0172 20.8739 40.8529 21.7659 41.9541 22.3018C42.9848 22.8035 44.2046 22.9783 45.4696 22.9783V18.9526ZM48.3204 18.2042C47.6846 18.6538 46.7821 18.9526 45.4696 18.9526V22.9783C47.3999 22.9783 49.1726 22.532 50.6445 21.4913L48.3204 18.2042ZM54.9344 21.2111L50.6378 18.1995L48.3272 21.496L52.6238 24.5076L54.9344 21.2111ZM44.9427 27.387C48.8055 27.387 52.1849 26.4684 54.9477 24.4981L52.6104 21.2205C50.6713 22.6034 48.1598 23.3613 44.9427 23.3613V27.387ZM35.6525 24.3999C37.9339 26.5075 41.1524 27.387 44.9427 27.387V23.3613C41.7071 23.3613 39.6427 22.6056 38.3842 21.4429L35.6525 24.3999ZM33.1652 16.4463C32.5066 19.5262 33.3483 22.2713 35.6525 24.3999L38.3842 21.4429C37.1484 20.3013 36.7336 19.0102 37.1018 17.2881L33.1652 16.4463ZM38.1633 9.53403C35.53 11.2629 33.7805 13.566 33.1651 16.4467L37.1019 17.2877C37.4593 15.6149 38.4661 14.1509 40.3726 12.8992L38.1633 9.53403ZM47.2126 6.9684C43.8401 6.9684 40.7982 7.80409 38.1633 9.53403L40.3726 12.8992C42.2775 11.6486 44.532 10.994 47.2126 10.994V6.9684ZM50.05 13.4573H42.3891V17.483H50.05V13.4573ZM46.8478 15.3407C47.6544 15.3407 47.9635 15.4927 48.0289 15.5364C48.0449 15.5472 48.0304 15.5391 48.0186 15.5181C48.0103 15.5033 48.0344 15.5359 48.0461 15.6597L52.0538 15.2806C51.9369 14.044 51.3669 12.9261 50.2673 12.1905C49.2653 11.5201 48.0408 11.3151 46.8478 11.3151V15.3407ZM44.0526 16.6033C44.5872 15.8186 45.3929 15.3407 46.8478 15.3407V11.3151C44.3034 11.3151 42.1366 12.2654 40.7255 14.337L44.0526 16.6033ZM93.286 7.40306H86.5574V11.4287H93.286V7.40306ZM91.6807 25.3902L95.2477 9.86664L91.3243 8.96513L87.7573 24.4887L91.6807 25.3902ZM82.9904 26.9523H89.719V22.9267H82.9904V26.9523ZM81.3144 23.2694L81.0307 24.4803L84.9501 25.3987L85.2339 24.1879L81.3144 23.2694ZM77.3562 27.387C80.0459 27.387 82.4483 26.7636 84.4283 25.3777L82.1199 22.0796C80.9654 22.8878 79.4225 23.3613 77.3562 23.3613V27.387ZM69.3828 24.1449C71.2728 26.4218 74.075 27.387 77.3562 27.387V23.3613C74.8546 23.3613 73.3737 22.6499 72.4804 21.5737L69.3828 24.1449ZM67.6061 16.5361C66.9984 19.3549 67.5702 21.9613 69.3828 24.1449L72.4804 21.5737C71.5096 20.4043 71.1762 19.078 71.5413 17.3846L67.6061 16.5361ZM71.9719 9.74754C69.6784 11.5644 68.1713 13.8364 67.6036 16.5479L71.5438 17.3729C71.8949 15.6963 72.8198 14.2116 74.4716 12.903L71.9719 9.74754ZM80.5584 6.9684C77.262 6.9684 74.3554 7.85935 71.9719 9.74754L74.4716 12.903C76.0334 11.6658 78.0179 10.994 80.5584 10.994V6.9684ZM87.7279 9.87119C86.0692 7.784 83.4948 6.9684 80.5584 6.9684V10.994C82.8102 10.994 83.965 11.6066 84.5762 12.3758L87.7279 9.87119ZM84.599 8.95101L84.1936 10.6586L88.1104 11.5883L88.5158 9.88075L84.599 8.95101ZM79.7477 18.549C78.7728 18.549 78.4365 18.31 78.3329 18.2064L75.4877 21.0543C76.6271 22.1927 78.1824 22.5746 79.7477 22.5746V18.549ZM81.93 17.9763C81.3876 18.3307 80.6897 18.549 79.7477 18.549V22.5746C81.3458 22.5746 82.8367 22.1926 84.1318 21.3465L81.93 17.9763ZM82.8188 16.7922C82.7063 17.2515 82.4555 17.6331 81.93 17.9764L84.1318 21.3465C85.4439 20.4893 86.355 19.2771 86.729 17.7494L82.8188 16.7922ZM82.7611 17.1776V17.2708H86.7867V17.1776H82.7611ZM82.7432 16.1489C82.8064 16.212 82.821 16.2507 82.8303 16.2881C82.8432 16.3401 82.8641 16.4819 82.8053 16.758L86.7425 17.5973C87.0711 16.0555 86.7858 14.4972 85.5885 13.301L82.7432 16.1489ZM81.288 15.8063C82.3042 15.8063 82.6466 16.0523 82.7432 16.1488L85.5885 13.301C84.4421 12.1557 82.8658 11.7807 81.288 11.7807V15.8063ZM79.1318 16.3926C79.6712 16.0281 80.3595 15.8063 81.288 15.8063V11.7807C79.6764 11.7807 78.1758 12.1799 76.8776 13.0572L79.1318 16.3926ZM78.2709 17.5973C78.3705 17.1298 78.6115 16.7443 79.1318 16.3926L76.8776 13.0573C75.5605 13.9475 74.6664 15.197 74.3337 16.758L78.2709 17.5973ZM78.3329 18.2064C78.2698 18.1433 78.2551 18.1046 78.2459 18.0672C78.233 18.0152 78.212 17.8734 78.2709 17.5973L74.3337 16.758C74.0051 18.2998 74.2904 19.8581 75.4877 21.0543L78.3329 18.2064ZM110.445 17.5555H100.677V21.5811H110.445V17.5555ZM111.192 25.3839L112.408 20.0127L108.482 19.1238L107.266 24.495L111.192 25.3839ZM92.2051 26.9523H109.229V22.9266H92.2051V26.9523ZM95.2289 2.75634L90.2432 24.4894L94.1669 25.3895L99.1526 3.65646L95.2289 2.75634ZM104.446 1.19358H97.1907V5.21922H104.446V1.19358ZM102.638 20.0202L106.408 3.6583L102.485 2.7545L98.7152 19.1164L102.638 20.0202ZM132.285 9.91011C132.307 9.82374 132.329 9.799 132.331 9.79694C132.333 9.79409 132.359 9.76133 132.454 9.71569C132.678 9.60781 133.187 9.47875 134.156 9.53177L134.376 5.51214C133.075 5.44096 131.793 5.56545 130.707 6.08887C129.525 6.65803 128.707 7.63947 128.383 8.92156L132.285 9.91011ZM133.82 7.40301H130.334V11.4287H133.82V7.40301ZM134.954 13.4666L135.781 9.86682L131.858 8.96484L131.031 12.5646L134.954 13.4666ZM134.026 9.53402C133.069 10.162 132.223 10.8691 131.502 11.6624L134.482 14.3689C134.947 13.8569 135.526 13.3647 136.235 12.8992L134.026 9.53402ZM143.075 6.9684C139.703 6.9684 136.661 7.80409 134.026 9.53403L136.235 12.8992C138.14 11.6486 140.394 10.994 143.075 10.994V6.9684ZM151.609 9.87175C149.407 7.85599 146.475 6.9684 143.075 6.9684V10.994C145.782 10.994 147.633 11.6899 148.89 12.8409L151.609 9.87175ZM153.991 17.6115C154.331 16.18 154.335 14.7583 153.916 13.399C153.497 12.0398 152.694 10.8659 151.609 9.87175L148.89 12.8409C149.534 13.4302 149.893 14.013 150.069 14.584C150.245 15.1547 150.275 15.8365 150.075 16.6818L153.991 17.6115ZM153.122 20.0147C153.554 19.1995 153.865 18.3569 154.016 17.4918L150.05 16.8014C149.984 17.1783 149.836 17.6189 149.566 18.1285L153.122 20.0147ZM137.441 21.0844H151.344V17.0587H137.441V21.0844ZM141.332 18.9526C140.381 18.9526 139.845 18.8118 139.578 18.6821C139.382 18.5868 139.38 18.5318 139.369 18.4938L135.513 19.6493C135.88 20.8739 136.715 21.7659 137.816 22.3018C138.847 22.8035 140.067 22.9783 141.332 22.9783V18.9526ZM144.183 18.2042C143.547 18.6538 142.644 18.9526 141.332 18.9526V22.9783C143.262 22.9783 145.035 22.532 146.507 21.4913L144.183 18.2042ZM150.797 21.2111L146.5 18.1995L144.19 21.496L148.486 24.5076L150.797 21.2111ZM140.805 27.387C144.668 27.387 148.047 26.4684 150.81 24.4981L148.473 21.2205C146.534 22.6034 144.022 23.3613 140.805 23.3613V27.387ZM131.515 24.3999C133.796 26.5075 137.015 27.387 140.805 27.387V23.3613C137.57 23.3613 135.505 22.6056 134.247 21.4429L131.515 24.3999ZM129.028 16.4463C128.369 19.5262 129.211 22.2713 131.515 24.3999L134.247 21.4429C133.011 20.3013 132.596 19.0102 132.964 17.2881L129.028 16.4463ZM130.269 13.3093C129.68 14.281 129.266 15.33 129.028 16.4467L132.964 17.2877C133.11 16.605 133.359 15.9775 133.712 15.3954L130.269 13.3093ZM129.199 16.3652H131.99V12.3395H129.199V16.3652ZM128.729 25.3901L131.161 14.803L127.237 13.9017L124.805 24.4888L128.729 25.3901ZM120.038 26.9523H126.767V22.9266H120.038V26.9523ZM120.509 13.9017L118.077 24.4888L122 25.3901L124.432 14.803L120.509 13.9017ZM119.957 16.3652H122.47V12.3395H119.957V16.3652ZM119.087 8.98017L117.992 13.9167L121.922 14.788L123.017 9.85149L119.087 8.98017ZM123.605 7.40301H121.052V11.4287H123.605V7.40301ZM126.362 2.50709C123.894 3.94444 122.308 6.13998 121.646 8.95493L125.565 9.87674C125.983 8.0967 126.911 6.846 128.388 5.98586L126.362 2.50709ZM135.447 0.729741C131.881 0.575566 128.789 1.09351 126.362 2.50709L128.388 5.98586C129.906 5.10195 132.137 4.61603 135.273 4.75162L135.447 0.729741ZM136.228 7.97107L137.322 3.1898L133.398 2.29157L132.304 7.07284L136.228 7.97107ZM145.912 13.4573H138.251V17.483H145.912V13.4573ZM142.71 15.3407C143.517 15.3407 143.826 15.4927 143.891 15.5364C143.907 15.5472 143.893 15.5391 143.881 15.5181C143.873 15.5033 143.897 15.5359 143.908 15.6597L147.916 15.2806C147.799 14.044 147.229 12.9261 146.13 12.1905C145.128 11.5201 143.903 11.3151 142.71 11.3151V15.3407ZM139.915 16.6033C140.45 15.8186 141.255 15.3407 142.71 15.3407V11.3151C140.166 11.3151 137.999 12.2654 136.588 14.337L139.915 16.6033Z" fill="white" mask="url(#path-1-outside-1_233_879)"/>
</svg>
